<?xml version="1.0" standalone="no"?>
<!DOCTYPE svg PUBLIC "-//W3C//DTD SVG 20010904//EN"
 "http://www.w3.org/TR/2001/REC-SVG-20010904/DTD/svg10.dtd">
<svg version="1.0" xmlns="http://www.w3.org/2000/svg"
 width="1280.000000pt" height="1280.000000pt" viewBox="0 0 1280.000000 1280.000000"
 preserveAspectRatio="xMidYMid meet">
<g transform="translate(0.000000,1280.000000) scale(0.100000,-0.100000)"
fill="#000000" stroke="none">
<path d="M6555 10379 c-506 -92 -860 -194 -1114 -320 -279 -138 -436 -295
-485 -485 -23 -90 -20 -126 24 -283 45 -158 45 -161 27 -161 -26 0 -155 -69
-234 -126 -184 -133 -362 -308 -551 -543 l-82 -102 0 -64 c0 -82 11 -109 62
-156 23 -21 40 -41 36 -44 -3 -3 -132 26 -286 65 -154 38 -289 70 -299 70 -10
0 -37 -12 -59 -26 -135 -87 -287 -441 -514 -1191 -35 -117 -23 -108 -163 -117
-105 -7 -281 -43 -392 -81 -514 -172 -902 -613 -1141 -1298 -73 -209 -174
-609 -174 -688 0 -65 23 -160 47 -195 20 -30 26 -56 34 -148 27 -313 106 -573
244 -801 365 -605 1065 -1005 2185 -1251 91 -19 188 -35 215 -35 28 0 188 16
358 36 274 32 318 40 410 71 441 153 826 393 1065 665 197 222 322 456 397
744 61 232 70 313 70 665 0 290 -2 324 -23 429 -60 296 -198 575 -407 825 -36
44 -70 87 -76 97 -16 31 70 340 267 960 74 235 84 275 84 340 0 41 -3 84 -6
97 -8 29 -156 127 -327 218 -70 37 -126 72 -124 77 2 6 26 18 55 28 61 21 159
83 262 166 87 70 422 408 469 473 l31 43 0 156 c0 86 4 161 8 168 4 6 40 24
80 39 l72 26 66 -58 c272 -244 328 -284 401 -284 23 0 44 -4 48 -10 6 -9 -14
-21 -192 -118 -130 -69 -227 -144 -258 -196 -76 -131 20 -458 339 -1155 36
-80 66 -152 66 -160 0 -9 -36 -77 -81 -151 -296 -497 -424 -932 -405 -1380 25
-598 227 -1038 629 -1376 293 -247 659 -418 1166 -547 l206 -52 285 1 c432 0
621 30 900 141 815 323 1355 773 1632 1360 87 184 148 398 184 638 21 142 29
521 15 681 -47 535 -323 943 -869 1287 -208 131 -565 291 -852 381 -100 32
-120 42 -151 76 -101 110 -270 463 -484 1010 -49 124 -95 233 -103 243 -8 9
-24 17 -34 17 -56 0 -1049 -339 -1506 -514 -94 -36 -179 -66 -189 -66 -12 0
-6 10 20 34 20 18 37 40 37 48 0 16 -40 77 -85 131 -53 62 -146 131 -228 167
-42 19 -77 38 -77 42 0 4 40 62 89 129 119 163 146 217 144 289 -1 30 -14 96
-28 145 -15 50 -30 98 -32 108 -10 34 23 16 171 -97 383 -290 573 -479 606
-603 13 -50 20 -53 132 -56 l83 -2 118 77 c74 49 121 87 127 102 13 36 -13
126 -57 200 -105 171 -337 400 -718 706 -120 96 -162 123 -290 185 -175 85
-376 166 -600 241 -164 55 -184 58 -270 43z m-113 -612 c-149 -187 -238 -315
-247 -358 -11 -50 4 -116 46 -197 21 -41 39 -81 39 -87 0 -11 -73 -45 -95 -45
-6 0 -28 26 -50 57 -92 129 -250 260 -400 329 -83 38 -98 40 -175 19 -30 -8
-66 -17 -80 -21 l-25 -6 25 22 c30 27 193 109 355 180 295 128 728 293 733
279 2 -5 -55 -82 -126 -172z m-762 -836 c15 -29 13 -33 -17 -29 -20 2 -29 9
-31 26 -4 28 33 31 48 3z m-445 -289 c41 -66 123 -150 170 -176 37 -19 59 -21
265 -26 l225 -5 -50 -34 c-164 -113 -536 -409 -589 -469 -25 -29 -15 -79 29
-137 21 -27 30 -45 21 -45 -7 0 -87 26 -177 59 -90 32 -245 84 -344 116 -99
31 -185 61 -192 67 -16 13 36 155 89 237 60 94 211 240 368 358 74 56 140 102
145 102 6 1 23 -20 40 -47z m723 -84 c18 -18 15 -95 -4 -102 -35 -14 -43 -7
-38 32 12 86 17 95 42 70z m2261 -354 c61 -51 127 -227 167 -447 16 -88 16
-88 -6 -112 -12 -12 -27 -42 -34 -66 l-13 -44 -96 -3 -97 -3 -45 42 c-53 49
-122 139 -199 263 l-56 89 0 121 c0 180 5 184 212 185 133 1 137 0 167 -25z
m-3416 -738 c8 -8 27 -80 42 -159 l29 -144 -67 -135 c-37 -75 -87 -163 -112
-197 l-45 -61 -94 0 -94 0 -40 46 c-37 41 -102 173 -102 206 0 27 51 187 86
271 20 48 53 106 75 131 37 42 44 45 97 49 147 9 211 7 225 -7z m3872 -296
c14 -13 25 -33 25 -45 0 -12 6 -30 14 -40 18 -25 58 -23 326 16 195 28 231 31
385 26 284 -9 522 -65 737 -172 326 -164 554 -445 681 -840 67 -206 80 -296
74 -500 -7 -244 -34 -382 -112 -567 -69 -164 -170 -310 -312 -451 -266 -267
-631 -461 -1173 -624 l-155 -47 -227 -4 c-254 -4 -323 5 -571 73 -621 170
-984 510 -1073 1005 -24 134 -29 376 -10 498 42 273 200 584 466 917 118 147
507 542 679 690 l114 97 54 -4 c38 -3 60 -11 78 -28z m-4328 -756 c92 -29 163
-110 163 -187 0 -18 6 -40 13 -48 6 -9 71 -64 142 -124 169 -141 428 -402 532
-535 137 -177 233 -345 292 -514 50 -142 61 -230 61 -492 0 -222 -1 -237 -26
-314 -88 -279 -227 -522 -399 -695 -154 -156 -329 -261 -555 -335 -134 -44
-254 -66 -437 -80 -122 -9 -140 -8 -269 15 -437 81 -746 179 -1045 331 -508
258 -806 630 -895 1119 -26 140 -26 482 -1 607 81 401 309 686 702 879 212
103 420 169 700 220 98 18 174 23 415 28 l295 6 47 27 c33 20 52 41 69 74 l22
47 61 -7 c34 -3 84 -13 113 -22z"/>
</g>
</svg>
